<svg width="64" height="64" viewBox="0 0 64 64" fill="none" xmlns="http://www.w3.org/2000/svg">
<path d="M55.5733 6.01134C54.487 5.97714 53.4047 6.15688 52.3899 6.54001C51.3752 6.92314 50.4483 7.50193 49.6638 8.24245C48.8793 8.98297 48.2529 9.87029 47.8213 10.8523C47.3898 11.8344 47.1619 12.8914 47.1509 13.9614V39.1793C47.1509 41.3785 48.0382 43.4875 49.6178 45.0426C51.1973 46.5976 53.3395 47.4713 55.5733 47.4713C57.8071 47.4713 59.9494 46.5976 61.5289 45.0426C63.1084 43.4875 63.9958 41.3785 63.9958 39.1793V14.3033C64.0305 13.2374 63.8493 12.1754 63.4628 11.1791C63.0764 10.1828 62.4923 9.27221 61.7448 8.50042C60.9972 7.72863 60.1011 7.11106 59.1086 6.68372C58.1161 6.25638 57.0472 6.02781 55.9641 6.01134H55.5733Z" fill="#5E60CE"/>
<path d="M8.68293 6.01134C7.57819 5.9538 6.47298 6.11564 5.43306 6.48721C4.39314 6.85878 3.43977 7.4325 2.62967 8.17423C1.81956 8.91595 1.16928 9.81053 0.717522 10.8047C0.26576 11.7989 0.0217457 12.8724 0 13.9614V39.1793C0 41.3785 0.887361 43.4875 2.46688 45.0426C4.04639 46.5976 6.18867 47.4713 8.42244 47.4713C10.6562 47.4713 12.7985 46.5976 14.378 45.0426C15.9575 43.4875 16.8449 41.3785 16.8449 39.1793V14.3033C16.8796 13.2374 16.6984 12.1754 16.312 11.1791C15.9255 10.1828 15.3415 9.27221 14.5939 8.50042C13.8463 7.72863 12.9502 7.11106 11.9577 6.68372C10.9652 6.25638 9.89629 6.02781 8.81318 6.01134H8.68293Z" fill="#5E60CE"/>
<path d="M31.4766 6.01136C30.3933 5.98867 29.3161 6.17633 28.3065 6.56362C27.2969 6.95091 26.3746 7.53025 25.5925 8.26852C24.8103 9.0068 24.1836 9.88955 23.7481 10.8664C23.3125 11.8432 23.0768 12.8949 23.0542 13.9614V48.7108C23.0542 50.91 23.9416 53.0191 25.5211 54.5741C27.1006 56.1292 29.2429 57.0028 31.4766 57.0028C33.7104 57.0028 35.8527 56.1292 37.4322 54.5741C39.0117 53.0191 39.8991 50.91 39.8991 48.7108V14.5171C39.9338 13.4511 39.7526 12.3891 39.3662 11.3928C38.9797 10.3965 38.3957 9.48596 37.6481 8.71417C36.9005 7.94237 36.0044 7.32481 35.0119 6.89746C34.0194 6.47012 32.9505 6.24154 31.8674 6.22507L31.4766 6.01136Z" fill="#5E60CE"/>
</svg>
